<svg width="40" height="32" viewBox="0 0 40 32" fill="none" xmlns="http://www.w3.org/2000/svg">
<g filter="url(#filter0_d_212_16724)">
<rect x="4" width="32" height="32" rx="16" fill="#8047F8" shape-rendering="crispEdges"/>
<path d="M17 11.5V9.5C17 9.36739 17.0527 9.24021 17.1464 9.14645C17.2402 9.05268 17.3674 9 17.5 9C17.6326 9 17.7598 9.05268 17.8536 9.14645C17.9473 9.24021 18 9.36739 18 9.5V11.5C18 11.6326 17.9473 11.7598 17.8536 11.8536C17.7598 11.9473 17.6326 12 17.5 12C17.3674 12 17.2402 11.9473 17.1464 11.8536C17.0527 11.7598 17 11.6326 17 11.5ZM19.5 12C19.6326 12 19.7598 11.9473 19.8536 11.8536C19.9473 11.7598 20 11.6326 20 11.5V9.5C20 9.36739 19.9473 9.24021 19.8536 9.14645C19.7598 9.05268 19.6326 9 19.5 9C19.3674 9 19.2402 9.05268 19.1464 9.14645C19.0527 9.24021 19 9.36739 19 9.5V11.5C19 11.6326 19.0527 11.7598 19.1464 11.8536C19.2402 11.9473 19.3674 12 19.5 12ZM21.5 12C21.6326 12 21.7598 11.9473 21.8536 11.8536C21.9473 11.7598 22 11.6326 22 11.5V9.5C22 9.36739 21.9473 9.24021 21.8536 9.14645C21.7598 9.05268 21.6326 9 21.5 9C21.3674 9 21.2402 9.05268 21.1464 9.14645C21.0527 9.24021 21 9.36739 21 9.5V11.5C21 11.6326 21.0527 11.7598 21.1464 11.8536C21.2402 11.9473 21.3674 12 21.5 12ZM27.5 15.5V16C27.4997 16.6358 27.2571 17.2475 26.8217 17.7108C26.3863 18.174 25.7908 18.454 25.1562 18.4937C24.8119 19.457 24.2317 20.3186 23.4688 21H25C25.1326 21 25.2598 21.0527 25.3536 21.1464C25.4473 21.2402 25.5 21.3674 25.5 21.5C25.5 21.6326 25.4473 21.7598 25.3536 21.8536C25.2598 21.9473 25.1326 22 25 22H14C13.8674 22 13.7402 21.9473 13.6464 21.8536C13.5527 21.7598 13.5 21.6326 13.5 21.5C13.5 21.3674 13.5527 21.2402 13.6464 21.1464C13.7402 21.0527 13.8674 21 14 21H15.5312C14.8941 20.4359 14.3836 19.7432 14.0335 18.9676C13.6834 18.192 13.5016 17.351 13.5 16.5V13.5C13.5 13.3674 13.5527 13.2402 13.6464 13.1464C13.7402 13.0527 13.8674 13 14 13H25C25.663 13 26.2989 13.2634 26.7678 13.7322C27.2366 14.2011 27.5 14.837 27.5 15.5ZM26.5 15.5C26.4996 15.1901 26.4033 14.8879 26.2243 14.635C26.0452 14.3821 25.7922 14.1908 25.5 14.0875V16.5C25.5004 16.814 25.4753 17.1275 25.425 17.4375C25.7352 17.3458 26.0075 17.1564 26.2013 16.8973C26.395 16.6382 26.4998 16.3235 26.5 16V15.5Z" fill="#FAFAFA"/>
</g>
<defs>
<filter id="filter0_d_212_16724" x="0" y="0" width="40" height="40" filterUnits="userSpaceOnUse" color-interpolation-filters="sRGB">
<feFlood flood-opacity="0" result="BackgroundImageFix"/>
<feColorMatrix in="SourceAlpha" type="matrix" values="0 0 0 0 0 0 0 0 0 0 0 0 0 0 0 0 0 0 127 0" result="hardAlpha"/>
<feOffset dy="4"/>
<feGaussianBlur stdDeviation="2"/>
<feComposite in2="hardAlpha" operator="out"/>
<feColorMatrix type="matrix" values="0 0 0 0 0 0 0 0 0 0 0 0 0 0 0 0 0 0 0.25 0"/>
<feBlend mode="normal" in2="BackgroundImageFix" result="effect1_dropShadow_212_16724"/>
<feBlend mode="normal" in="SourceGraphic" in2="effect1_dropShadow_212_16724" result="shape"/>
</filter>
</defs>
</svg>
